<?xml version="1.0" encoding="utf-8"?>
<!-- Generator: Adobe Illustrator 27.2.0, SVG Export Plug-In . SVG Version: 6.00 Build 0)  -->
<svg version="1.1" id="Layer_1" xmlns="http://www.w3.org/2000/svg" xmlns:xlink="http://www.w3.org/1999/xlink" x="0px" y="0px"
	 viewBox="0 0 800 800" style="enable-background:new 0 0 800 800;" xml:space="preserve">
<style type="text/css">
	.st0{fill:#FFBC0D;}
</style>
<path d="M699.3,85.3c-44.1-43.6-113-49.4-163.8-14c79.2,33,143.8,93.3,182.2,170C748.3,191.3,740.6,126.9,699.3,85.3z"/>
<path d="M253.8,76.2C203,35.9,130.2,39.8,84,85.3c-45.8,46.1-49.5,119.3-8.4,169.8C111.2,175.8,174.6,112.2,253.8,76.2z"/>
<path d="M400,88.9C228.2,89.2,89.2,228.8,89.5,400.6c0.2,82.1,32.8,160.8,90.7,218.9l-56.7,56.7c-8.7,8.8-8.5,23,0.3,31.7
	c8.8,8.7,23,8.5,31.7-0.3l59.1-59.1c111.1,84.1,264.8,83.4,375.1-1.8l60.9,60.9c9.3,8,23.4,6.9,31.3-2.4c7.1-8.3,7.1-20.6,0-28.9
	l-59.8-58.9c120-122.9,117.7-319.9-5.3-439.9C558.9,120.7,481.1,89,400,88.9z"/>
<g id="_Слой_1-2">
	<path class="st0" d="M690.5,331.3l-2.4-11.6l-97.7-17l56.8-76.7l-6.7-7.3L557,258.9l10.5-106.4l-8.6-4.8L508,233.6l-56.5-128.2h-10
		l13.5,123.9l-143.5-115l-12.1,3.5L410,256.7l-218.9-73l-10,11L376.6,306l-269.8,22.6l-3,16.7l280.3,30.4L150.4,569.1l10,13.5
		l278.1-151.3l-55.2,266.6h17l106.6-250.7l64.9,196.3l11.6-8.9L556.7,435l101.2,115l6.7-10.5L587.1,397l108.2,40.1l1.1-12.1
		l-96.9-71.6l91.5-22.1L690.5,331.3z"/>
</g>
</svg>
